<svg width="287" height="80" viewBox="0 0 287 80" fill="none" xmlns="http://www.w3.org/2000/svg">
<path d="M108.083 56L96.0033 28H103.003L113.563 52.8H109.443L120.163 28H126.603L114.483 56H108.083ZM137.58 56.32C135.126 56.32 132.966 55.84 131.1 54.88C129.26 53.92 127.833 52.6133 126.82 50.96C125.806 49.28 125.3 47.3733 125.3 45.24C125.3 43.08 125.793 41.1733 126.78 39.52C127.793 37.84 129.166 36.5333 130.9 35.6C132.633 34.64 134.593 34.16 136.78 34.16C138.886 34.16 140.78 34.6133 142.46 35.52C144.166 36.4 145.513 37.68 146.5 39.36C147.486 41.0133 147.98 43 147.98 45.32C147.98 45.56 147.966 45.84 147.94 46.16C147.913 46.4533 147.886 46.7333 147.86 47H130.38V43.36H144.58L142.18 44.44C142.18 43.32 141.953 42.3467 141.5 41.52C141.046 40.6933 140.42 40.0533 139.62 39.6C138.82 39.12 137.886 38.88 136.82 38.88C135.753 38.88 134.806 39.12 133.98 39.6C133.18 40.0533 132.553 40.7067 132.1 41.56C131.646 42.3867 131.42 43.3733 131.42 44.52V45.48C131.42 46.6533 131.673 47.6933 132.18 48.6C132.713 49.48 133.446 50.16 134.38 50.64C135.34 51.0933 136.46 51.32 137.74 51.32C138.886 51.32 139.886 51.1467 140.74 50.8C141.62 50.4533 142.42 49.9333 143.14 49.24L146.46 52.84C145.473 53.96 144.233 54.8267 142.74 55.44C141.246 56.0267 139.526 56.32 137.58 56.32ZM160.934 56.32C158.401 56.32 156.427 55.68 155.014 54.4C153.601 53.0933 152.894 51.16 152.894 48.6V29.72H159.134V48.52C159.134 49.4267 159.374 50.1333 159.854 50.64C160.334 51.12 160.987 51.36 161.814 51.36C162.801 51.36 163.641 51.0933 164.334 50.56L166.014 54.96C165.374 55.4133 164.601 55.76 163.694 56C162.814 56.2133 161.894 56.32 160.934 56.32ZM149.574 39.76V34.96H164.494V39.76H149.574Z" fill="#1D0088"/>
<path d="M186.104 56.672C182.68 56.672 179.688 56.048 177.128 54.8C174.6 53.552 172.648 51.824 171.272 49.616C169.896 47.376 169.208 44.8 169.208 41.888C169.208 38.976 169.72 36.288 170.744 33.824C171.768 31.36 173.208 29.232 175.064 27.44C176.92 25.616 179.128 24.208 181.688 23.216C184.28 22.224 187.144 21.728 190.28 21.728C193.384 21.728 196.136 22.272 198.536 23.36C200.936 24.448 202.728 26.016 203.912 28.064L197.048 33.536C196.28 32.256 195.272 31.28 194.024 30.608C192.808 29.936 191.352 29.6 189.656 29.6C188.024 29.6 186.536 29.888 185.192 30.464C183.88 31.04 182.744 31.856 181.784 32.912C180.824 33.968 180.088 35.216 179.576 36.656C179.064 38.064 178.808 39.6 178.808 41.264C178.808 42.768 179.128 44.096 179.768 45.248C180.44 46.368 181.384 47.248 182.6 47.888C183.848 48.496 185.32 48.8 187.016 48.8C188.52 48.8 189.96 48.496 191.336 47.888C192.744 47.28 194.04 46.288 195.224 44.912L200.84 50.432C198.952 52.704 196.776 54.32 194.312 55.28C191.848 56.208 189.112 56.672 186.104 56.672ZM213.786 56.432C211.93 56.432 210.154 55.968 208.458 55.04C206.762 54.112 205.386 52.768 204.33 51.008C203.306 49.248 202.794 47.104 202.794 44.576C202.794 42.4 203.162 40.4 203.898 38.576C204.634 36.752 205.642 35.168 206.922 33.824C208.234 32.48 209.738 31.44 211.434 30.704C213.162 29.936 214.986 29.552 216.906 29.552C219.018 29.552 220.826 29.968 222.33 30.8C223.866 31.6 224.986 32.912 225.69 34.736C226.394 36.528 226.554 38.96 226.17 42.032C225.882 44.944 225.194 47.488 224.106 49.664C223.018 51.84 221.61 53.52 219.882 54.704C218.154 55.856 216.122 56.432 213.786 56.432ZM216.954 49.088C218.17 49.088 219.242 48.784 220.17 48.176C221.098 47.568 221.818 46.72 222.33 45.632C222.874 44.544 223.146 43.28 223.146 41.84C223.146 40.336 222.714 39.136 221.85 38.24C220.986 37.312 219.77 36.848 218.202 36.848C217.018 36.848 215.946 37.168 214.986 37.808C214.058 38.416 213.322 39.264 212.778 40.352C212.266 41.44 212.01 42.704 212.01 44.144C212.01 45.648 212.442 46.848 213.306 47.744C214.17 48.64 215.386 49.088 216.954 49.088ZM220.794 56L221.706 51.632L223.434 43.04L224.586 34.448L225.498 29.984H234.618L229.434 56H220.794ZM235.305 56L240.489 29.984H249.129L247.641 37.376L246.777 35.264C247.929 33.184 249.449 31.712 251.337 30.848C253.225 29.984 255.433 29.552 257.961 29.552L256.377 37.76C255.993 37.696 255.641 37.664 255.321 37.664C255.001 37.632 254.665 37.616 254.313 37.616C252.329 37.616 250.697 38.096 249.417 39.056C248.169 39.984 247.337 41.536 246.921 43.712L244.425 56H235.305ZM270.946 56.432C268.162 56.432 265.73 55.952 263.65 54.992C261.602 54 260.002 52.624 258.85 50.864C257.698 49.072 257.122 46.976 257.122 44.576C257.122 41.696 257.778 39.136 259.09 36.896C260.402 34.624 262.242 32.832 264.61 31.52C266.978 30.208 269.73 29.552 272.866 29.552C275.522 29.552 277.794 30.032 279.682 30.992C281.602 31.952 283.074 33.296 284.098 35.024C285.154 36.72 285.682 38.704 285.682 40.976C285.682 41.744 285.634 42.48 285.538 43.184C285.442 43.888 285.314 44.576 285.154 45.248H264.274L265.138 40.448H280.93L277.138 41.84C277.394 40.592 277.346 39.552 276.994 38.72C276.674 37.856 276.114 37.2 275.314 36.752C274.546 36.272 273.586 36.032 272.434 36.032C270.962 36.032 269.746 36.4 268.786 37.136C267.858 37.872 267.154 38.88 266.674 40.16C266.226 41.408 266.002 42.768 266.002 44.24C266.002 46.032 266.498 47.36 267.49 48.224C268.482 49.056 269.97 49.472 271.954 49.472C273.106 49.472 274.226 49.296 275.314 48.944C276.434 48.56 277.41 48.032 278.242 47.36L282.034 53.072C280.402 54.288 278.626 55.152 276.706 55.664C274.818 56.176 272.898 56.432 270.946 56.432Z" fill="#1D0088"/>
<circle cx="40" cy="40" r="38.5" fill="#F5F5F5" stroke="#1D0088" stroke-width="3"/>
<path d="M49.2308 10H30.7692V30.7692H10V49.2308H30.7692V70H49.2308V49.2308H70V30.7692H49.2308V10Z" fill="#1D0088"/>
<path d="M37.5597 32.9535L31.9725 34.0254L25.9311 29.914C25.9311 29.914 25.4116 33.945 28.977 35.4992C32.1862 36.8965 36.2356 36.797 40.377 36.8812C44.655 36.9654 47.2972 36.7587 48.2412 37.7731C48.7756 38.3474 48.4402 39.4805 48.4402 39.4805C48.4402 39.4805 50.5361 39.0938 50.5361 38.956C50.5361 38.8182 50.5094 35.6064 50.2986 35.5031C50.0878 35.3997 43.3012 33.0071 43.3012 33.0071L40.567 32.9842C39.1094 32.9688 37.6161 32.9574 37.5597 32.9535Z" fill="#5731A5"/>
<path d="M28.6297 31.3228L27.9409 28.7924L29.4253 27.9042L32.3703 29.3053L34.5197 29.5465C34.5197 29.5465 34.493 30.5074 32.3198 30.3734C29.9359 30.2241 29.6391 29.6767 29.3333 30.0059C29.0394 30.3198 29.1552 30.9591 29.4461 31.3113C30.0428 32.031 31.3847 32.4406 31.3847 32.4406L28.6297 31.3228ZM29.2412 42.677C29.2412 42.677 28.7633 43.7374 28.8969 45.2418C29.0305 46.7463 29.9033 48.3885 31.8923 49.1733C33.8814 49.9581 37.4884 50.6088 40.4067 50.984C43.325 51.3592 45.8692 51.8032 46.4541 52.1822C47.0389 52.5574 46.8519 53.3804 46.932 53.4799C47.0122 53.5833 47.9919 53.9929 48.2323 53.8206C48.4698 53.6484 48.4194 50.605 48.4194 50.605L43.4853 47.4238C43.4853 47.4238 42.3661 47.2363 40.475 46.9913C38.7947 46.7692 37.7467 46.5434 37.7467 46.5434C37.7467 46.5434 33.3559 46.7424 33.1422 46.4668C32.9284 46.1988 29.2412 42.677 29.2412 42.677ZM37.4944 59.4863L43.2152 60.4931L44.6461 62.1698L47.1398 64.0494L48.1463 65.5883C48.1463 65.5883 48.0453 66.4267 47.4308 66.1013C46.8459 65.795 46.7688 64.7002 45.0706 63.8082C43.3725 62.9163 41.9683 62.9201 40.3236 62.7823C38.6789 62.6445 35.3391 62.1315 33.825 61.4156C32.587 60.8261 31.545 59.7083 31.4916 57.9627C31.4262 55.8763 32.8898 55.0916 32.8898 55.0916L34.0892 59.1609L37.4944 59.4863Z" fill="#5731A5"/>
<path d="M39.1717 28.444V64.9681C39.1717 65.8601 39.4033 66.6372 40.4156 66.6295C41.5972 66.6219 41.6862 65.8027 41.6803 65.1481C41.6744 64.3939 41.6566 28.3866 41.6566 28.3866L39.1717 28.444ZM31.3609 32.3525C29.0305 31.7438 28.1933 30.3045 28.5287 29.2594C28.8078 28.3904 29.7252 28.5129 30.1408 28.7541C30.4287 28.9187 31.3402 29.7149 32.5603 29.8221C33.7805 29.9293 34.5167 29.5465 34.5167 29.5465C34.5167 29.5465 34.6058 29.2556 34.1931 29.2096C33.5786 29.1407 33.1362 29.1828 33.16 28.7579C33.1808 28.3942 33.7478 28.333 34.303 28.2526C35.0422 28.1454 35.5231 28.0038 35.5558 27.7434C35.5795 27.5597 34.6414 24.5355 31.3283 24.7001C28.0834 24.8609 25.8598 27.2917 25.9014 30.4614C25.9341 32.9152 28.3863 34.2666 30.9305 34.8216C33.4836 35.3806 37.5627 35.3729 37.5627 35.3729V32.9497C37.5656 32.9459 33.9052 33.0224 31.3609 32.3525ZM31.4144 27.2075C31.4233 26.7252 31.5866 26.2237 32.0823 26.2505C32.5128 26.2734 32.6553 26.8285 32.6464 27.2611C32.6375 27.6937 32.4089 28.1377 32.0259 28.0995C31.643 28.065 31.4025 27.6631 31.4144 27.2075Z" fill="white"/>
<path d="M39.1717 28.444V30.0135C39.1717 30.0135 39.5547 30.5839 40.4394 30.5571C41.3241 30.5303 41.6625 30.1169 41.6625 30.1169L41.6714 28.5244C41.6714 28.5244 42.9361 28.1913 43.4823 26.572C43.9841 25.0829 43.797 23.5631 43.797 23.5631L37.3281 23.521C37.3281 23.521 37.0491 25.2437 37.5686 26.6639C38.1238 28.1837 39.1717 28.444 39.1717 28.444Z" fill="#5731A5"/>
<path d="M40.5017 26.7213C43.2241 26.8132 43.8119 23.766 43.8119 23.766C43.8119 23.766 43.61 20.3475 40.5344 20.2748C37.8625 20.2097 37.3637 23.299 37.3252 23.521C37.2866 23.743 37.9456 26.6371 40.5017 26.7213Z" fill="white"/>
<path d="M52.1511 37.1606C52.1511 37.1606 52.3708 37.9569 52.0769 39.9054C51.9819 40.5256 51.3198 42.654 48.2888 43.2627C45.412 43.8407 41.6536 43.8943 41.6536 43.8943V45.3911C41.6536 45.3911 40.9559 45.5251 40.3355 45.5251C39.715 45.5251 39.1806 45.3413 39.1806 45.3413V43.8943C39.1806 43.8943 34.9858 43.9441 34.2673 43.9441C33.8814 43.9441 32.973 44.0704 32.973 44.9011C32.973 45.9692 34.3742 46.5242 34.3742 46.5242C34.3742 46.5242 31.5598 46.8228 31.5331 46.5587C31.5064 46.2907 31.8181 41.896 31.8181 41.896L40.8283 40.9964C40.8283 40.9964 48.5738 40.8969 48.9359 40.7285C49.2981 40.5638 52.1511 37.1606 52.1511 37.1606ZM34.9413 58.5101C34.9413 58.5101 34.7245 57.4956 35.7933 57.4803C36.5355 57.4727 39.1688 57.5378 39.1688 57.5378V59.5667L41.6773 59.5743L41.6744 57.599C41.6744 57.599 46.8133 57.7942 48.4313 56.73C50.5598 55.3328 50.6519 53.7058 50.6281 52.2894C50.6014 50.873 48.3481 52.8139 48.3481 52.8139L45.9731 55.1758L37.7259 55.3481L33.6884 56.4008L33.6113 59.0039L34.9413 58.5101Z" fill="#5731A5"/>
<path d="M43.1914 62.1851L43.2152 60.493C43.2152 60.493 45.1062 60.8873 46.1987 61.9554C47.9592 63.6857 48.1106 65.1557 48.1492 65.5883C48.1878 66.0209 47.0864 64.4322 46.6352 63.9766C44.9162 62.2502 43.1914 62.1851 43.1914 62.1851Z" fill="white"/>
<path d="M37.53 61.2855L37.5062 59.4824C37.5062 59.4824 34.585 59.0307 34.5761 57.8248C34.5702 56.8333 35.1491 56.4965 37.1738 56.5998C39.1598 56.6994 46.3442 57.1319 48.8172 55.3787C49.9097 54.6054 50.6133 53.6177 50.6281 52.343C50.64 51.2941 50.2748 50.337 49.3248 49.491C47.505 47.8717 43.4823 47.4353 43.4823 47.4353L43.4348 49.9312C43.4348 49.9312 47.1844 50.4672 47.2913 52.4042C47.3833 54.0426 41.8436 54.2341 40.2909 54.2226C37.7764 54.2034 31.8567 53.5105 31.9013 57.0554C31.9369 59.6968 34.3208 60.6385 35.9744 60.9716C36.8591 61.14 37.53 61.2855 37.53 61.2855Z" fill="white"/>
<path d="M37.4914 49.3034L37.7438 46.5434C37.7438 46.5434 36.8323 46.3941 35.8764 46.2409C34.3802 45.9998 32.4089 45.4294 32.4386 44.323C32.495 42.2099 35.3955 42.5123 38.4681 42.5659C43.6664 42.654 48.0512 42.2329 49.5802 41.762C51.8898 41.0462 52.2847 39.1972 52.2134 37.62C52.1541 36.261 51.7147 35.392 50.8923 34.6226C50.1828 33.9603 49.1734 33.589 48.1077 33.3937C46.4422 33.0875 43.2953 32.9995 43.2953 32.9995L43.3191 35.5375C43.3191 35.5375 47.1903 35.637 48.078 36.0734C49.5327 36.7893 49.1645 39.1704 47.5941 39.557C46.0236 39.9437 43.2389 40.0317 40.2494 40.1236C38.3642 40.181 32.3466 39.3809 30.0487 41.5668C29.5055 42.0836 29.0691 42.7688 29.0423 43.6723C28.9355 47.2248 32.8691 48.1894 35.3836 48.8402C36.5889 49.1541 37.4914 49.3034 37.4914 49.3034Z" fill="white"/>
</svg>
